# xmcd
#
# Track frame offsets:
# 150
# 15699
# 30161
# 43987
# 59669
# 76100
# 91290
# 106110
# 120677
# 134634
# 148510
# 162941
# 178062
# 192515
# 208420
# 223374
# 238802
#
# Disc length: 3385 seconds
#
# Revision: 5
# Processed by: cddbd v1.5.1PL2 Copyright (c) Steve Scherf et al.
# Submitted via: inCDius 2.0b9
#
DISCID=000d3711
DTITLE=Tommy Johnson - Complete Recorded Works in Chronological Order (1928 - 
DTITLE=1929)
DYEAR=1928
DGENRE=Blues
TTITLE0=Cool Drink Of Water Blues
TTITLE1=Big Road Blues
TTITLE2=Bye-Bye Blues
TTITLE3=Maggie Campbell
TTITLE4=Canned Heat Blues
TTITLE5=Lonesome Home Blues (Take 1)
TTITLE6=Lonesome Home Blues (Take 2)
TTITLE7=Big Fat Mama Blues
TTITLE8=I Wonder To Myself
TTITLE9=Lonesome Home Blues
TTITLE10=Slidin' Delta
TTITLE11=Untitled Song - Take 1 (Morning Prayer Blues)
TTITLE12=Untitled Song - Take 2 (Boogaloosa Woman)
TTITLE13=Black Mare Blues (Take 1)
TTITLE14=Black Mare Blues (Take 2)
TTITLE15=Ridin' Horse
TTITLE16=Alcohol And Jake Blues
EXTD=2000 Document
EXTT0=
EXTT1=
EXTT2=
EXTT3=
EXTT4=
EXTT5=
EXTT6=
EXTT7=
EXTT8=
EXTT9=
EXTT10=
EXTT11=
EXTT12=
EXTT13=
EXTT14=
EXTT15=
EXTT16=
PLAYORDER=
